# xmcd CD database file
#
# Track frame offsets:
#	183
#	14935
#	46140
#	60933
#	80155
#	98268
#	120758
#	141463
#	158110
#	177155
#
# Disc length: 2610 seconds
#
# Revision: 4
# Processed by: cddbd v1.5.2PL0 Copyright (c) Steve Scherf et al.
# Submitted via: CDex 1.70beta2
#
DISCID=770a300a
DTITLE=Donovan - Sunshine Superman
DYEAR=1966
DGENRE=Folk
TTITLE0=Sunshine Superman
TTITLE1=Legend Of A Girl Child Linda
TTITLE2=Three King Fishers
TTITLE3=Ferris Wheel
TTITLE4=Bert's Blues
TTITLE5=Season Of The Witch
TTITLE6=The Trip
TTITLE7=Guinevere
TTITLE8=The Fat Angel
TTITLE9=Celeste
EXTD=YEAR: 1966
EXTT0=
EXTT1=
EXTT2=
EXTT3=
EXTT4=
EXTT5=
EXTT6=
EXTT7=
EXTT8=
EXTT9=
PLAYORDER=
